<svg xmlns="http://www.w3.org/2000/svg" viewBox="0 0 39.9 48" width="39.9" height="48"><path fill="#fff" d="M7.9 23.9c0-1.7 1.4-3.1 3.1-3.1h28.7v1H11c-1.1-.1-2.1.8-2.1 1.9v.1c0 1.1.8 2 1.9 2h28.9v1H11c0 .1-3.1.1-3.1-2.9zm0-10.6c0-1.7 1.3-3 3-3.1h25.9c1.7 0 3.1 1.4 3.1 3.1 0 1.7-1.3 3-3 3.1H11c-1.7 0-3.1-1.4-3.1-3.1zm31 0c0-1.1-.9-2-2-2h-26c-.5 0-.9.2-1.3.5-.4.4-.7 1-.6 1.6 0 1.1.9 2 2 2h25.9c1 0 2-.9 2-2.1zM11 37.4h28.7v-1H11c-1.1.1-2-.7-2.1-1.8V34.3c.1-1.1 1-2 2.1-1.9h28.7v-1H11c-1.7 0-3.1 1.4-3.1 3.1 0 2.9 3.1 2.9 3.1 2.9zm28.9 7.5c0 1.7-1.3 3-3 3.1H11c-1.7 0-3.1-1.4-3.1-3.1 0-1.7 1.3-3 3-3.1h25.9c1.6 0 3 1.4 3.1 3.1zm-1 0c0-1.1-.9-2-2-2H11c-1.1-.1-2 .8-2 1.9v.2c0 1.1.9 2 2 2h25.8c1.1 0 2.1-.9 2.1-2.1 0 .1 0 0 0 0zm-32.8 0c0 1.7-1.3 3.1-3 3.1H3c-1.7 0-3-1.4-3-3.1 0-1.7 1.4-3 3-3 1.7-.1 3.1 1.3 3.1 3zm-3-2c-1.1 0-2 1-2 2.1s.9 2 2 2 2-1 2-2.1c-.1-1.1-.9-2-2-2z"></path><path fill="#ef6c26" d="M39.8 3c0-1.7-1.3-3-3-3H29c-1.8 0-3.5.8-4.7 2l-1.2 1.4c-1.1 1.1-2.5 1.7-4 1.8h-8.2c-1.1-.1-2-1-2-2.1s.9-2.1 2-2.1h8.7V0H11S7.9 0 7.9 3c-.1 1.6 1.2 3 2.9 3.1H19.1c1.8 0 3.5-.8 4.7-2L25 2.7c1.1-1.1 2.5-1.7 4-1.8h7.7c1.1 0 2.1.9 2.1 2v.2c0 .5-.3 1-.7 1.4-.4.4-.9.6-1.5.5h-9.2v1h9.2c1 .1 2-.4 2.6-1.3.3-.5.5-1.1.5-1.7.1.1.1.1.1 0z"/></svg>
