<svg width="95" height="64" viewBox="0 0 95 64" fill="none" xmlns="http://www.w3.org/2000/svg">
<g id="logo-wens">
<g id="Group">
<path id="Vector" d="M91.4696 33.6133H91.6583C91.7805 33.6133 91.8693 33.6244 91.947 33.6577C92.0691 33.7021 92.1357 33.8243 92.1357 33.9686C92.1357 34.0907 92.1024 34.1906 92.0358 34.2573C91.9581 34.3239 91.8471 34.3572 91.6472 34.3572H91.4696V33.6244V33.6133ZM92.3911 35.1454C92.2911 34.99 92.2246 34.8901 92.1801 34.8346C92.1468 34.7902 92.1135 34.7458 92.0691 34.7013C92.4133 34.6458 92.6464 34.3461 92.6464 33.9575C92.6464 33.7354 92.5576 33.5356 92.4022 33.3913C92.2578 33.258 92.058 33.1914 91.7583 33.1914H90.9922V35.8338H91.4807V34.7347C91.4807 34.7347 91.5473 34.7791 91.5917 34.8124C91.7694 35.0011 91.8248 35.101 92.0136 35.4119L92.0913 35.534C92.1468 35.6228 92.1801 35.6894 92.2356 35.7894L92.2578 35.8227H92.8463L92.7797 35.7227C92.7352 35.645 92.5243 35.312 92.4133 35.1454" fill="#004771"/>
<path id="Vector_2" d="M91.7501 36.3848C90.7509 36.3848 89.9626 35.5743 89.9626 34.5196C89.9626 33.4649 90.7509 32.6544 91.7501 32.6544C92.7493 32.6544 93.5376 33.476 93.5376 34.5196C93.5376 35.5632 92.7493 36.3848 91.7501 36.3848ZM91.7501 32.1992C90.4511 32.1992 89.4297 33.2206 89.4297 34.5307C89.4297 35.8408 90.4511 36.8511 91.7501 36.8511C93.0491 36.8511 94.0705 35.8297 94.0705 34.5307C94.0705 33.2317 93.0491 32.1992 91.7501 32.1992Z" fill="#004771"/>
<path id="Vector_3" d="M44.1234 43.8476C44.1234 42.26 43.9458 41.4939 43.424 40.7168C42.8577 39.9063 41.9696 39.4955 40.8371 39.4955C38.5944 39.4955 37.3288 41.0832 37.3288 44.0031V44.0808H44.1345V43.8365L44.1234 43.8476ZM37.2289 48.0776V48.2442C37.2289 51.4972 38.9386 53.2847 41.9695 53.2847C43.9458 53.2847 45.8776 52.5963 47.6761 51.2085L49.9633 54.4615C47.4208 56.3711 44.6119 57.3481 41.4922 57.3481C34.9973 57.3481 30.8672 53.0848 30.8672 46.5677C30.8672 42.8262 31.6999 40.3837 33.6761 38.3187C35.5635 36.4091 37.7617 35.5098 40.7483 35.5098C43.3795 35.5098 45.7999 36.2758 47.2432 37.708C49.3082 39.6621 50.2297 42.4266 50.2297 46.812V48.0666H37.2289V48.0776Z" fill="#004771"/>
<path id="Vector_4" d="M64.5703 57.1044V43.5706C64.5703 41.1725 64.1374 40.5174 62.5941 40.5174C61.4062 40.5174 59.8741 41.2502 58.5085 42.3937V57.1044H52.6242V42.0163C52.6242 40.2288 52.3577 38.5634 51.8359 37.1423L57.0541 35.7656C57.6314 36.6649 57.8867 37.5198 57.8867 38.3747C58.7638 37.7641 59.4633 37.3199 60.4736 36.8314C61.6615 36.2208 63.1493 35.9322 64.5148 35.9322C67.0129 35.9322 69.2111 37.1534 69.9106 38.9409C70.2103 39.6737 70.3436 40.6507 70.3436 41.9052V57.1155H64.5482L64.5703 57.1044Z" fill="#004771"/>
<path id="Vector_5" d="M80.6006 57.4497C77.8362 57.4497 74.8052 56.6392 71.5078 55.0515L73.6173 51.0658C75.4159 52.0872 78.4912 53.4195 81.0781 53.4195C82.7878 53.4195 84.0646 52.3981 84.0646 51.0658C84.0646 49.6447 83.0099 48.9453 80.6006 48.5012L77.9694 48.046C76.4262 47.7573 74.672 46.8691 73.8393 45.9365C73.0066 45.0039 72.5625 43.5384 72.5625 42.195C72.5625 38.1316 75.9821 35.4004 81.2557 35.4004C84.8973 35.4004 87.2288 36.4218 89.2938 37.3544L87.362 41.0182C85.1193 39.919 83.5428 39.5194 81.833 39.5194C80.1233 39.5194 78.9797 40.2854 78.9797 41.5511C78.9797 42.6502 79.7236 43.172 81.7886 43.6605L84.5087 44.3045C87.2288 44.9595 88.1947 45.7367 88.9829 46.6582C89.8156 47.6019 90.2153 48.7787 90.2153 50.1998C90.2153 54.5075 86.3517 57.4385 80.6006 57.4385" fill="#004771"/>
<path id="Vector_6" d="M25.3146 36.0215L23.6048 43.46C23.0386 46.0691 22.5057 49.3998 22.3725 50.2547C22.2392 49.5664 22.106 48.7892 21.9284 48.012L20.696 42.8938L18.8974 36.0215H12.9243L11.1258 42.8938L9.89339 48.012C9.71576 48.7781 9.58253 49.5553 9.44931 50.2547C9.31608 49.3998 8.79428 46.0691 8.21696 43.46L6.50719 36.0215H0.445312L6.85136 56.8384H12.2471L14.2677 49.6885C14.7451 48.0231 15.2337 46.0691 15.5445 44.648L15.8887 42.583L16.2329 44.648C16.5326 46.0691 17.0211 48.0231 17.5096 49.6885L19.5303 56.8384H24.926L31.3432 36.0215H25.2924H25.3146Z" fill="#004771"/>
<path id="Vector_7" d="M73.1345 59.2494V60.2375H73.945V61.0813H73.1345V62.4024C73.1345 62.8465 73.2456 63.0464 73.5897 63.0464C73.7452 63.0464 73.8229 63.0464 73.9228 63.0131V63.8791C73.7896 63.9346 73.512 63.979 73.2011 63.979C72.8348 63.979 72.5239 63.8569 72.3462 63.6681C72.1353 63.4572 72.0354 63.1019 72.0354 62.5801V61.0813H71.5469V60.2375H72.0354V59.5491L73.1456 59.2383L73.1345 59.2494Z" fill="#004771"/>
<path id="Vector_8" d="M74.6036 61.4441C74.6036 60.9001 74.6036 60.5449 74.5703 60.2451H75.5473L75.5917 60.9223H75.625C75.8138 60.3783 76.2579 60.1563 76.6131 60.1563C76.7131 60.1563 76.7686 60.1562 76.8574 60.1784V61.2443C76.7686 61.2332 76.6798 61.211 76.5465 61.211C76.1246 61.211 75.8471 61.433 75.7694 61.7883C75.7583 61.866 75.7472 61.9548 75.7472 62.0437V63.8977H74.6036V61.4441Z" fill="#004771"/>
<path id="Vector_9" d="M79.3311 62.1664C78.7316 62.1664 78.2653 62.3107 78.2653 62.7437C78.2653 63.0324 78.4651 63.1767 78.7205 63.1767C78.998 63.1767 79.2312 62.988 79.3089 62.7548C79.32 62.6993 79.3311 62.6327 79.3311 62.555V62.1553V62.1664ZM80.4302 63.0213C80.4302 63.3655 80.4413 63.7096 80.4857 63.9095H79.4532L79.3866 63.5431H79.3644C79.1201 63.8428 78.7538 63.9983 78.3208 63.9983C77.5769 63.9983 77.1328 63.4543 77.1328 62.8769C77.1328 61.9221 77.9877 61.478 79.2867 61.478V61.4336C79.2867 61.2338 79.1868 60.9562 78.6206 60.9562C78.2431 60.9562 77.8545 61.0784 77.6102 61.2338L77.3993 60.501C77.6546 60.3567 78.1543 60.168 78.8204 60.168C80.0417 60.168 80.4302 60.8896 80.4302 61.7556V63.0435V63.0213Z" fill="#004771"/>
<path id="Vector_10" d="M82.0872 60.2383L82.5868 61.9369C82.6756 62.2478 82.7423 62.5365 82.7978 62.8251H82.82C82.8755 62.5254 82.9421 62.2478 83.0198 61.9369L83.4861 60.2383H84.6852L83.3196 63.902H82.176L80.8438 60.2383H82.0761H82.0872Z" fill="#004771"/>
<path id="Vector_11" d="M87.3299 61.6551C87.3299 61.3775 87.2077 60.9112 86.6859 60.9112C86.2085 60.9112 86.0087 61.3553 85.9864 61.6551H87.3299ZM85.9864 62.4322C86.0198 62.8985 86.4861 63.1317 87.019 63.1317C87.4076 63.1317 87.7184 63.0873 88.0293 62.9763L88.1736 63.7423C87.7961 63.8978 87.3409 63.9755 86.8524 63.9755C85.609 63.9755 84.8984 63.2538 84.8984 62.1103C84.8984 61.1777 85.4757 60.1562 86.7525 60.1562C87.9405 60.1562 88.3846 61.0777 88.3846 61.9881C88.3846 62.188 88.3624 62.3545 88.3402 62.4322H85.9754H85.9864Z" fill="#004771"/>
<path id="Vector_12" d="M90.1982 58.582H89.0547V63.9H90.1982V58.582Z" fill="#004771"/>
<path id="Vector_13" d="M81.5973 15.3281C80.5648 16.6937 79.4212 17.9483 78.1777 19.0696C77.556 19.6247 76.9121 20.1577 76.2571 20.6462C75.602 21.1458 74.9137 21.601 74.2142 22.034C73.5148 22.4558 72.8042 22.8666 72.0826 23.233C71.3498 23.5994 70.6171 23.9325 69.8621 24.2544C68.3633 24.8762 66.8311 25.3758 65.2768 25.7866C65.2768 25.7866 65.2768 25.7866 65.2657 25.7866C65.0326 25.8532 64.7661 25.9198 64.5108 25.9753C64.2554 26.0419 64.0001 26.0974 63.7336 26.1529C63.2229 26.2639 62.69 26.3639 62.1682 26.4638C61.1245 26.6636 60.0698 26.8191 59.0151 26.9745C56.9057 27.2632 54.774 27.4519 52.6423 27.5407C48.379 27.7073 44.0935 27.4741 39.8524 26.9079C35.6113 26.3306 31.4035 25.398 27.2735 24.1545C23.1434 22.911 19.1021 21.3345 15.1719 19.4693C19.0577 21.4788 23.0101 23.2996 27.1402 24.6763C31.2592 26.0641 35.4781 27.0855 39.7525 27.7739C44.0269 28.4622 48.3457 28.7731 52.6756 28.7287C54.8406 28.6954 57.0056 28.5844 59.1705 28.3512C60.2474 28.2291 61.3244 28.0736 62.4013 27.8849C62.9342 27.785 63.4672 27.674 64.0112 27.5629C64.5552 27.4408 65.077 27.3187 65.621 27.1521H65.6321C67.2308 26.708 68.7963 26.1196 70.3062 25.4313C71.0722 25.0871 71.8272 24.6985 72.5489 24.2766C73.2816 23.8547 74.0033 23.4106 74.7027 22.9221C75.4022 22.4336 76.0683 21.9118 76.7233 21.3567C77.3673 20.8016 77.989 20.2021 78.5886 19.5803C79.7654 18.3258 80.7313 16.8603 81.5973 15.3504" fill="#004771"/>
<path id="Vector_14" d="M68.1862 4.28111L68.0197 4.33661L67.8532 4.39211C67.398 4.54754 66.9761 4.71409 66.5431 4.89173C64.8333 5.59118 63.1902 6.34616 61.5026 6.95679C61.0807 7.11222 60.6699 7.25653 60.248 7.38976C60.0371 7.45638 59.8261 7.52299 59.6152 7.5674L58.9713 7.73393C58.1053 7.95598 57.2393 8.16692 56.3733 8.35566C54.6303 8.74424 52.8872 9.05512 51.133 9.29937C47.6247 9.77677 44.0941 9.8989 40.5747 9.68796L40.2971 9.66573C39.8974 9.64353 39.4977 9.61022 39.0981 9.56581C41.4185 12.086 45.4042 14.6285 46.1481 15.0837C46.5922 15.339 47.0474 15.5944 47.5026 15.8387C48.6128 16.416 49.7563 16.9156 50.9221 17.3375C51.0886 17.393 51.2552 17.4374 51.4217 17.4818C51.3551 17.4818 51.2885 17.4596 51.2107 17.4485C49.29 17.1487 47.4026 16.6269 45.5707 15.9275C45.2377 15.7942 44.8935 15.661 44.5604 15.5167C43.7388 15.1725 42.9284 14.795 42.1401 14.3732C40.7301 13.6404 39.3756 12.7966 38.0766 11.864C35.3121 10.0099 33.3359 8.33347 33.3359 8.33347L33.9244 8.96631C36.2337 11.4421 38.9093 13.4739 41.7959 15.1281C44.6714 16.7713 47.7912 17.9814 51.0331 18.6365C52.654 18.9695 54.2972 19.1694 55.9514 19.1694C57.6057 19.1694 59.2599 18.9917 60.8809 18.6365C63.7231 18.0258 66.4654 16.9267 68.9634 15.3946L69.7628 14.8839C69.7628 14.8839 75.536 11.1202 74.8476 6.71253C74.8476 6.71253 74.2703 2.34928 68.2084 4.25889" fill="#004771"/>
<path id="Vector_15" d="M86.8315 0.804997C85.9766 0.716178 80.0368 0.0944432 79.182 0.0389314C78.1828 -0.0720921 77.1835 0.0500392 76.2287 0.460826C75.7513 0.671771 75.2961 0.949318 74.8742 1.3157C74.4524 1.67097 74.086 2.11507 73.7862 2.60357L73.6863 2.7701C73.6863 2.7701 73.6197 2.88113 73.5975 2.91444C73.5531 2.99215 73.4865 3.08096 73.431 3.14758C73.3088 3.30301 73.1867 3.43626 73.0535 3.54728C72.7981 3.75822 72.5095 3.89145 72.1764 3.95806C74.5079 4.55759 74.8187 6.73365 74.8187 6.73365C75.0741 8.29908 74.4968 9.76459 73.6641 11.0303C73.6197 11.108 73.5864 11.1635 73.542 11.219C73.5309 11.2412 73.5198 11.2634 73.4976 11.2745C72.1653 13.2507 70.5333 14.7384 70.5333 14.7384C59.7418 23.9534 42.0113 22.1326 42.0113 22.1326C40.2904 22.0549 38.5807 21.9106 36.8598 21.6996C33.7733 21.3333 30.7091 20.7559 27.667 20.001C26.146 19.6346 24.6361 19.2238 23.1262 18.7797C22.3712 18.5577 21.6274 18.3245 20.8724 18.0803C20.1174 17.8471 19.3736 17.5917 18.6297 17.3364C12.6567 15.2713 6.81681 12.6956 1.05469 9.86452C1.86516 10.5307 2.72003 11.1413 3.57491 11.7297C4.42979 12.3181 5.29578 12.8843 6.18397 13.4173C7.94925 14.4831 9.74785 15.4712 11.5797 16.3816C11.935 16.5592 12.3014 16.7258 12.6567 16.9034C40.7123 30.6703 63.461 23.8313 63.461 23.8313C65.737 23.2206 67.9686 22.3769 70.1224 21.2666C73.8306 19.3459 77.2835 16.5814 79.8592 12.74C80.0147 12.4958 80.159 12.2626 80.3033 12.0184L80.5254 11.6409C80.6031 11.5076 80.6697 11.3855 80.7474 11.2301C80.7918 11.1302 80.8251 11.0747 80.8584 11.0081L80.9472 10.8082L81.1249 10.4307L81.4802 9.68688C81.9576 8.69877 82.4683 7.74396 83.0345 6.83357C83.6007 5.93428 84.2113 5.0683 84.8775 4.30223C85.5436 3.53617 86.2875 2.88112 87.0758 2.44812L89.596 1.07144L86.8204 0.793884L86.8315 0.804997Z" fill="#5FC093"/>
</g>
</g>
</svg>
