<?xml version="1.0" encoding="utf-8"?>
<!-- Generator: Adobe Illustrator 22.0.1, SVG Export Plug-In . SVG Version: 6.00 Build 0)  -->
<svg version="1.1" xmlns="http://www.w3.org/2000/svg" xmlns:xlink="http://www.w3.org/1999/xlink" x="0px" y="0px"
	 viewBox="0 0 1680.7 748" width="1680.7px" height="748px" style="enable-background:new 0 0 1680.7 748;" xml:space="preserve">
<style type="text/css">
	.st0{fill:#585857;}
	.st1{fill:#E40330;}
	.st2{fill:#F2CB13;}
	.st3{fill:none;}
</style>
<g id="Calque_1">
	<g>
		<path class="st0" d="M931.4,450.4v9.6h-74.1V349.8H930v9.6h-61.9v39.7h54v9.2h-54v42.1H931.4z"/>
		<path class="st0" d="M994.6,451c6.9,0,12.7-1.3,17.3-4c4.6-2.6,8.3-6.1,11-10.4c2.7-4.3,4.7-9.2,5.7-14.7c1.1-5.5,1.6-11,1.6-16.6
			v-55.6h10.9v55.6c0,7.5-0.8,14.5-2.5,21.2c-1.7,6.7-4.3,12.6-8,17.6c-3.7,5.1-8.5,9.1-14.4,12.1c-5.9,3-13.1,4.5-21.6,4.5
			c-8.8,0-16.1-1.6-22-4.7c-5.9-3.2-10.7-7.3-14.3-12.5c-3.6-5.2-6.2-11.1-7.8-17.7c-1.6-6.6-2.3-13.5-2.3-20.5v-55.6h10.7v55.6
			c0,5.8,0.6,11.4,1.7,16.9c1.1,5.5,3.1,10.4,5.8,14.6c2.7,4.2,6.4,7.7,10.9,10.2C982.1,449.7,987.8,451,994.6,451z"/>
		<path class="st0" d="M1064.8,460V349.8h46.4c4.8,0,9.2,1,13.2,3s7.5,4.7,10.4,7.9c2.9,3.3,5.1,7,6.8,11.1
			c1.6,4.1,2.4,8.3,2.4,12.6c0,4-0.6,7.9-1.8,11.6c-1.2,3.7-2.9,7-5,9.9c-2.2,2.9-4.8,5.4-7.8,7.5c-3,2-6.4,3.4-10.1,4.1l27.2,42.5
			h-12.3l-26.1-40.7h-32.6V460H1064.8z M1075.5,409.7h36.2c3.2,0,6.1-0.7,8.8-2.1c2.6-1.4,4.9-3.3,6.8-5.7c1.9-2.4,3.3-5.1,4.3-8.1
			c1-3,1.6-6.2,1.6-9.5c0-3.3-0.6-6.5-1.8-9.5c-1.2-3.1-2.8-5.7-4.8-8c-2-2.3-4.4-4.1-7.1-5.4c-2.7-1.3-5.6-2-8.6-2h-35.2V409.7z"/>
		<path class="st0" d="M1208.9,460.8c-7.7,0-14.7-1.6-21-4.7c-6.4-3.2-11.8-7.3-16.4-12.6c-4.6-5.2-8.1-11.2-10.6-17.9
			c-2.5-6.7-3.7-13.6-3.7-20.6c0-7.3,1.3-14.4,4-21.1c2.6-6.7,6.3-12.7,10.9-17.9c4.7-5.2,10.1-9.3,16.5-12.3
			c6.3-3.1,13.1-4.6,20.5-4.6c7.7,0,14.7,1.6,21,4.9c6.4,3.3,11.8,7.5,16.3,12.8s8,11.3,10.5,17.9c2.5,6.7,3.7,13.5,3.7,20.4
			c0,7.4-1.3,14.4-4,21.1c-2.6,6.7-6.3,12.7-10.9,17.8c-4.6,5.1-10.1,9.2-16.4,12.3C1223,459.3,1216.2,460.8,1208.9,460.8z
			 M1168,404.9c0,6,1,11.8,2.9,17.3c2,5.5,4.8,10.5,8.4,14.7c3.6,4.3,7.9,7.7,12.9,10.2c5,2.5,10.5,3.8,16.6,3.8
			c6.2,0,11.9-1.3,16.9-4c5.1-2.7,9.4-6.2,12.9-10.6c3.5-4.3,6.2-9.3,8.2-14.7c1.9-5.5,2.9-11.1,2.9-16.8c0-6-1-11.8-3-17.3
			c-2-5.5-4.8-10.4-8.5-14.7c-3.6-4.2-7.9-7.6-12.9-10.2c-5-2.5-10.5-3.8-16.5-3.8c-6.2,0-11.9,1.3-16.9,4
			c-5.1,2.6-9.4,6.1-12.9,10.5c-3.5,4.3-6.2,9.3-8.2,14.7C1169,393.6,1168,399.2,1168,404.9z"/>
		<path class="st0" d="M1279,460V349.8h45.6c4.8,0,9.1,1,13.1,3c4,2,7.4,4.7,10.3,7.9c2.9,3.3,5.1,7,6.8,11.1
			c1.6,4.1,2.4,8.3,2.4,12.6c0,4.6-0.8,8.9-2.3,13.1c-1.5,4.2-3.6,7.9-6.4,11.1c-2.8,3.2-6.1,5.8-10,7.8c-3.9,2-8.2,2.9-13,2.9
			h-35.9V460H1279z M1289.8,409.7h35.2c3.2,0,6.1-0.7,8.8-2.1s4.9-3.3,6.8-5.6c1.9-2.3,3.3-5,4.3-8.1c1-3.1,1.6-6.2,1.6-9.5
			c0-3.4-0.6-6.6-1.8-9.7c-1.2-3.1-2.8-5.7-4.8-8c-2-2.3-4.4-4.1-7.1-5.4c-2.7-1.3-5.6-1.9-8.6-1.9h-34.3V409.7z"/>
		<path class="st0" d="M1447,450.4v9.6H1373V349.8h72.7v9.6h-61.9v39.7h54v9.2h-54v42.1H1447z"/>
		<path class="st0" d="M1454,460l46.1-110.2h8.8l46.1,110.2h-11.6l-14.3-34.5h-49.5l-14.1,34.5H1454z M1504.6,362.5L1482,417h44.7
			L1504.6,362.5z"/>
		<path class="st0" d="M1579.3,370v90h-10.7V349.8h8.4l73,91.8v-91.6h10.7V460h-9.3L1579.3,370z"/>
	</g>
	<g>
		<path class="st0" d="M857.4,601V498.9h66.9v8.9h-56.9v37.5h48.2v8.3h-48.2V601H857.4z"/>
		<path class="st0" d="M939.3,601V498.9h43c4.4,0,8.5,0.9,12.2,2.8s6.9,4.3,9.6,7.3c2.7,3,4.8,6.4,6.3,10.3
			c1.5,3.8,2.2,7.7,2.2,11.6c0,3.7-0.6,7.3-1.7,10.7c-1.1,3.4-2.7,6.5-4.7,9.2s-4.4,5-7.2,6.9c-2.8,1.9-5.9,3.1-9.3,3.8L1015,601
			h-11.4l-24.2-37.7h-30.2V601H939.3z M949.2,554.4h33.5c3,0,5.7-0.6,8.1-1.9s4.5-3,6.3-5.2c1.7-2.2,3.1-4.7,4-7.5
			c1-2.8,1.4-5.7,1.4-8.8c0-3.1-0.6-6-1.7-8.8c-1.1-2.8-2.6-5.3-4.5-7.4c-1.9-2.1-4.1-3.8-6.6-5c-2.5-1.2-5.2-1.9-8-1.9h-32.6V554.4
			z"/>
		<path class="st0" d="M1072.9,592.6c6.4,0,11.8-1.2,16-3.7c4.3-2.4,7.7-5.7,10.2-9.6c2.5-4,4.3-8.5,5.3-13.6
			c1-5.1,1.5-10.2,1.5-15.4v-51.5h10.1v51.5c0,6.9-0.8,13.4-2.3,19.6c-1.5,6.2-4,11.6-7.4,16.3c-3.4,4.7-7.8,8.4-13.3,11.2
			c-5.5,2.8-12.1,4.2-20,4.2c-8.1,0-15-1.5-20.4-4.4c-5.5-2.9-9.9-6.8-13.2-11.6c-3.4-4.8-5.8-10.3-7.2-16.4
			c-1.4-6.1-2.2-12.5-2.2-19v-51.5h9.9v51.5c0,5.4,0.5,10.6,1.6,15.7c1.1,5.1,2.9,9.6,5.4,13.5c2.5,3.9,5.9,7.1,10.1,9.5
			C1061.3,591.4,1066.6,592.6,1072.9,592.6z"/>
		<path class="st0" d="M1138.1,601V499h9.9v102H1138.1z"/>
		<path class="st0" d="M1244.3,507.8h-36.4V601h-10.1v-93.2h-36.4v-8.9h82.8V507.8z"/>
		<path class="st0" d="M1280,588.2c2.1,1.4,4.8,2.7,8.1,3.7c3.3,1.1,7,1.6,11.1,1.6c5.2,0,9.3-0.9,12.4-2.8c3.1-1.9,5.5-4.6,7.1-8.3
			c1.6-3.6,2.7-8.1,3.2-13.4c0.5-5.3,0.7-11.4,0.7-18.2V499h10.1v51.8c0,7.8-0.4,14.8-1.1,21.2c-0.7,6.4-2.2,11.8-4.5,16.3
			c-2.3,4.5-5.7,8-10.1,10.5c-4.4,2.5-10.4,3.7-17.8,3.7c-8.6,0-16-2.1-22.1-6.3L1280,588.2z"/>
		<path class="st0" d="M1396.5,592.6c6.4,0,11.8-1.2,16-3.7c4.3-2.4,7.7-5.7,10.2-9.6c2.5-4,4.3-8.5,5.3-13.6
			c1-5.1,1.5-10.2,1.5-15.4v-51.5h10.1v51.5c0,6.9-0.8,13.4-2.3,19.6c-1.5,6.2-4,11.6-7.4,16.3c-3.4,4.7-7.8,8.4-13.3,11.2
			c-5.5,2.8-12.1,4.2-20,4.2c-8.1,0-15-1.5-20.4-4.4c-5.5-2.9-9.9-6.8-13.2-11.6c-3.4-4.8-5.8-10.3-7.2-16.4
			c-1.4-6.1-2.2-12.5-2.2-19v-51.5h9.9v51.5c0,5.4,0.5,10.6,1.6,15.7c1.1,5.1,2.9,9.6,5.4,13.5c2.5,3.9,5.9,7.1,10.1,9.5
			C1384.9,591.4,1390.1,592.6,1396.5,592.6z"/>
		<path class="st0" d="M1461.6,601V499h9.9v102H1461.6z"/>
		<path class="st0" d="M1488.6,549.2c0-6.1,1.1-12.2,3.2-18.3c2.2-6.1,5.3-11.5,9.4-16.3c4.1-4.8,9.2-8.7,15.2-11.7
			c6-3,12.9-4.5,20.6-4.5c9.1,0,16.9,2.1,23.3,6.2c6.4,4.1,11.2,9.5,14.4,16.1l-8.1,4.9c-1.6-3.4-3.6-6.2-5.9-8.5s-4.8-4.2-7.5-5.6
			c-2.7-1.4-5.5-2.5-8.3-3.1c-2.9-0.6-5.7-0.9-8.5-0.9c-6.1,0-11.6,1.2-16.2,3.7c-4.7,2.5-8.7,5.8-11.9,9.8c-3.2,4-5.6,8.6-7.3,13.6
			c-1.6,5-2.4,10.1-2.4,15.3c0,5.7,1,11.1,2.9,16.2c2,5.2,4.6,9.8,8.1,13.7c3.4,4,7.4,7.1,12.1,9.5c4.6,2.4,9.7,3.5,15.2,3.5
			c2.9,0,5.8-0.4,8.8-1.1s5.9-1.9,8.8-3.5c2.8-1.6,5.4-3.5,7.8-5.9c2.4-2.3,4.4-5.2,6-8.6l8.3,4.3c-1.6,3.8-3.9,7.2-6.9,10.1
			c-3,2.9-6.3,5.4-9.9,7.4c-3.6,2-7.5,3.5-11.6,4.6c-4.1,1.1-8.1,1.6-12,1.6c-7,0-13.4-1.5-19.3-4.6c-5.8-3.1-10.9-7.1-15.1-12
			c-4.2-4.9-7.5-10.5-9.9-16.8C1489.8,562.1,1488.6,555.7,1488.6,549.2z"/>
		<path class="st0" d="M1660.8,592v8.9h-68.6V498.9h67.3v8.9h-57.4v36.8h50v8.5h-50v39H1660.8z"/>
	</g>
	<g>
		<path class="st0" d="M857.4,730l37.7-90.1h7.2L940,730h-9.5l-11.7-28.2h-40.5L866.8,730H857.4z M898.7,650.3l-18.5,44.5h36.5
			L898.7,650.3z"/>
		<path class="st0" d="M1002.7,656.8c-2.5-2.9-5.9-5.2-10.2-7c-4.3-1.8-9.1-2.7-14.4-2.7c-8,0-13.9,1.5-17.5,4.5
			c-3.6,3-5.5,7.1-5.5,12.2c0,2.7,0.5,4.9,1.5,6.7c1,1.7,2.5,3.2,4.6,4.5c2.1,1.3,4.7,2.4,7.9,3.3c3.2,0.9,6.9,1.9,11.2,2.8
			c4.8,1,9.1,2.1,12.9,3.4c3.8,1.2,7.1,2.8,9.8,4.7c2.7,1.9,4.8,4.2,6.2,7c1.4,2.7,2.2,6.2,2.2,10.2c0,4.1-0.8,7.7-2.4,10.8
			c-1.6,3-3.8,5.6-6.7,7.6c-2.9,2-6.3,3.5-10.3,4.5c-4,1-8.3,1.5-12.9,1.5c-14.1,0-26.2-4.4-36.2-13.1l4.3-7.2
			c3.3,3.5,7.7,6.4,13.3,8.8s11.8,3.6,18.7,3.6c7.2,0,12.8-1.3,16.9-3.9c4.1-2.6,6.1-6.5,6.1-11.7c0-2.8-0.6-5.1-1.7-7
			c-1.1-1.9-2.9-3.6-5.1-4.9s-5.1-2.6-8.6-3.6c-3.4-1-7.4-2-11.9-3c-4.7-1.1-8.9-2.2-12.4-3.4c-3.6-1.2-6.5-2.7-8.9-4.4
			c-2.4-1.8-4.2-3.9-5.5-6.4c-1.2-2.5-1.8-5.6-1.8-9.2c0-4.1,0.8-7.8,2.3-11.1c1.6-3.3,3.8-6,6.6-8.1c2.8-2.2,6.2-3.8,10.1-4.9
			s8.3-1.7,13-1.7c5.9,0,11.2,0.9,15.9,2.7c4.7,1.8,8.9,4.4,12.8,7.7L1002.7,656.8z"/>
		<path class="st0" d="M1078.4,656.8c-2.5-2.9-5.9-5.2-10.2-7c-4.3-1.8-9.1-2.7-14.4-2.7c-8,0-13.9,1.5-17.5,4.5
			c-3.6,3-5.5,7.1-5.5,12.2c0,2.7,0.5,4.9,1.5,6.7c1,1.7,2.5,3.2,4.6,4.5c2.1,1.3,4.7,2.4,7.9,3.3c3.2,0.9,6.9,1.9,11.2,2.8
			c4.8,1,9.1,2.1,12.9,3.4c3.8,1.2,7.1,2.8,9.8,4.7c2.7,1.9,4.8,4.2,6.2,7c1.4,2.7,2.2,6.2,2.2,10.2c0,4.1-0.8,7.7-2.4,10.8
			c-1.6,3-3.8,5.6-6.7,7.6c-2.9,2-6.3,3.5-10.3,4.5c-4,1-8.3,1.5-12.9,1.5c-14.1,0-26.2-4.4-36.2-13.1l4.3-7.2
			c3.3,3.5,7.7,6.4,13.3,8.8s11.8,3.6,18.7,3.6c7.2,0,12.8-1.3,16.9-3.9c4.1-2.6,6.1-6.5,6.1-11.7c0-2.8-0.6-5.1-1.7-7
			c-1.1-1.9-2.9-3.6-5.1-4.9s-5.1-2.6-8.6-3.6c-3.4-1-7.4-2-11.9-3c-4.7-1.1-8.9-2.2-12.4-3.4c-3.6-1.2-6.5-2.7-8.9-4.4
			c-2.4-1.8-4.2-3.9-5.5-6.4c-1.2-2.5-1.8-5.6-1.8-9.2c0-4.1,0.8-7.8,2.3-11.1c1.6-3.3,3.8-6,6.6-8.1c2.8-2.2,6.2-3.8,10.1-4.9
			s8.3-1.7,13-1.7c5.9,0,11.2,0.9,15.9,2.7c4.7,1.8,8.9,4.4,12.8,7.7L1078.4,656.8z"/>
		<path class="st0" d="M1137.8,730.6c-6.3,0-12-1.3-17.2-3.9c-5.2-2.6-9.7-6-13.4-10.3c-3.7-4.3-6.6-9.2-8.6-14.7
			c-2-5.5-3-11.1-3-16.9c0-6,1.1-11.8,3.2-17.3c2.2-5.5,5.1-10.4,8.9-14.6c3.8-4.2,8.3-7.6,13.4-10.1c5.2-2.5,10.7-3.7,16.7-3.7
			c6.3,0,12,1.3,17.2,4c5.2,2.7,9.6,6.2,13.3,10.5c3.7,4.3,6.5,9.2,8.6,14.7s3,11,3,16.7c0,6-1.1,11.8-3.2,17.3
			c-2.2,5.5-5.1,10.3-8.9,14.5c-3.8,4.2-8.2,7.5-13.4,10C1149.4,729.3,1143.8,730.6,1137.8,730.6z M1104.4,684.9
			c0,4.9,0.8,9.6,2.4,14.1c1.6,4.5,3.9,8.5,6.9,12.1c3,3.5,6.5,6.3,10.5,8.4c4.1,2.1,8.6,3.1,13.6,3.1c5.1,0,9.7-1.1,13.8-3.3
			c4.1-2.2,7.7-5.1,10.5-8.6c2.9-3.6,5.1-7.6,6.7-12.1c1.6-4.5,2.3-9,2.3-13.7c0-4.9-0.8-9.6-2.5-14.1c-1.6-4.5-4-8.5-6.9-12
			c-3-3.5-6.5-6.2-10.5-8.3c-4.1-2.1-8.5-3.1-13.4-3.1c-5.1,0-9.7,1.1-13.8,3.2c-4.1,2.2-7.7,5-10.5,8.6c-2.9,3.6-5.1,7.6-6.7,12.1
			C1105.2,675.7,1104.4,680.3,1104.4,684.9z"/>
		<path class="st0" d="M1189.4,684.3c0-5.4,1-10.8,2.9-16.2c1.9-5.4,4.7-10.2,8.3-14.4c3.6-4.2,8.1-7.7,13.4-10.3
			c5.3-2.7,11.4-4,18.1-4c8,0,14.9,1.8,20.6,5.5c5.7,3.6,9.9,8.4,12.7,14.2l-7.1,4.3c-1.4-3-3.2-5.5-5.2-7.5s-4.2-3.7-6.6-4.9
			c-2.4-1.3-4.8-2.2-7.4-2.7c-2.5-0.5-5-0.8-7.5-0.8c-5.4,0-10.2,1.1-14.3,3.3c-4.1,2.2-7.6,5.1-10.5,8.6c-2.8,3.6-5,7.5-6.4,12
			c-1.4,4.4-2.2,8.9-2.2,13.5c0,5,0.9,9.8,2.6,14.3c1.7,4.6,4.1,8.6,7.1,12.1c3,3.5,6.6,6.3,10.7,8.4c4.1,2.1,8.6,3.1,13.4,3.1
			c2.5,0,5.1-0.3,7.8-1c2.7-0.6,5.2-1.6,7.7-3c2.5-1.4,4.8-3.1,6.9-5.2c2.1-2.1,3.9-4.6,5.3-7.5l7.4,3.8c-1.4,3.4-3.5,6.4-6.1,8.9
			c-2.6,2.6-5.5,4.8-8.8,6.5c-3.2,1.8-6.6,3.1-10.2,4.1c-3.6,0.9-7.1,1.4-10.6,1.4c-6.2,0-11.8-1.4-17-4.1
			c-5.2-2.7-9.6-6.2-13.3-10.6c-3.7-4.4-6.6-9.3-8.7-14.8C1190.5,695.7,1189.4,690,1189.4,684.3z"/>
		<path class="st0" d="M1280.8,730v-90h8.8v90H1280.8z"/>
		<path class="st0" d="M1300.9,730l37.7-90.1h7.2l37.7,90.1h-9.5l-11.7-28.2h-40.5l-11.5,28.2H1300.9z M1342.3,650.3l-18.5,44.5
			h36.5L1342.3,650.3z"/>
		<path class="st0" d="M1449.8,647.7h-32.1V730h-8.9v-82.2h-32.1v-7.9h73.1V647.7z"/>
		<path class="st0" d="M1461.7,730v-90h8.8v90H1461.7z"/>
		<path class="st0" d="M1527.9,730.6c-6.3,0-12-1.3-17.2-3.9c-5.2-2.6-9.7-6-13.4-10.3c-3.7-4.3-6.6-9.2-8.6-14.7
			c-2-5.5-3-11.1-3-16.9c0-6,1.1-11.8,3.2-17.3c2.2-5.5,5.1-10.4,8.9-14.6c3.8-4.2,8.3-7.6,13.4-10.1c5.2-2.5,10.7-3.7,16.7-3.7
			c6.3,0,12,1.3,17.2,4c5.2,2.7,9.6,6.2,13.3,10.5c3.7,4.3,6.5,9.2,8.6,14.7s3,11,3,16.7c0,6-1.1,11.8-3.2,17.3
			c-2.2,5.5-5.1,10.3-8.9,14.5c-3.8,4.2-8.2,7.5-13.4,10C1539.5,729.3,1533.9,730.6,1527.9,730.6z M1494.5,684.9
			c0,4.9,0.8,9.6,2.4,14.1c1.6,4.5,3.9,8.5,6.9,12.1c3,3.5,6.5,6.3,10.5,8.4c4.1,2.1,8.6,3.1,13.6,3.1c5.1,0,9.7-1.1,13.8-3.3
			c4.1-2.2,7.7-5.1,10.5-8.6c2.9-3.6,5.1-7.6,6.7-12.1c1.6-4.5,2.3-9,2.3-13.7c0-4.9-0.8-9.6-2.5-14.1c-1.6-4.5-4-8.5-6.9-12
			c-3-3.5-6.5-6.2-10.5-8.3c-4.1-2.1-8.5-3.1-13.4-3.1c-5.1,0-9.7,1.1-13.8,3.2c-4.1,2.2-7.7,5-10.5,8.6c-2.9,3.6-5.1,7.6-6.7,12.1
			C1495.3,675.7,1494.5,680.3,1494.5,684.9z"/>
		<path class="st0" d="M1594.1,656.4V730h-8.8v-90.1h6.9l59.6,75V640h8.8v90h-7.6L1594.1,656.4z"/>
	</g>
	<g>
		<g>
			<polygon class="st1" points="497.4,660.7 259.9,660.7 264.8,689.3 492.5,689.3 			"/>
			<polygon class="st1" points="507.9,598.8 249.4,598.8 253.9,625.6 503.4,625.6 			"/>
			<path class="st1" d="M378.6,518.7c-42,0-132.6-27.3-135.2-128.3h-29.5l28.2,165.9h273l28.2-165.9h-29.6
				C511.2,491.4,420.7,518.7,378.6,518.7"/>
			<path class="st1" d="M378.6,10.4c-203.5,0-368.5,165-368.5,368.5c0,158.8,100.5,294.1,241.4,345.9l-59.8-351.5h52.2
				c7.4-107.1,107.8-129,134.9-284.9c27.1,155.9,127.5,177.8,134.9,284.9h52.2l-59.9,351.5c140.9-51.8,241.4-187.1,241.4-345.9
				C747.2,175.4,582.2,10.4,378.6,10.4"/>
		</g>
		<g>
			<polygon class="st2" points="515.2,556.3 242.1,556.3 249.4,598.8 507.9,598.8 			"/>
			<polygon class="st2" points="503.4,625.6 253.9,625.6 259.9,660.7 497.4,660.7 			"/>
			<polygon class="st2" points="485.6,730 492.5,689.3 264.8,689.3 271.7,730 			"/>
			<g>
				<path class="st2" d="M378.6,518.7c42,0,132.6-27.3,135.2-128.3H243.4C246,491.4,336.6,518.7,378.6,518.7"/>
				<path class="st2" d="M304.3,334.9c-15.9-7.1-13.3-23.3-2.6-37.6c10.2-13.6,29.6-28.4,36.2-42.2
					C351.5,314.3,331.8,347.2,304.3,334.9 M243.8,373.4h269.7c-7.3-107.1-107.8-129-134.9-284.9
					C351.6,244.4,251.1,266.3,243.8,373.4"/>
			</g>
		</g>
	</g>
	<g>
		<path class="st1" d="M857.4,275.6L962.3,9.5h42l104.6,266.1h-54.7l-24.4-66.3h-93.3l-24.4,66.3H857.4z M983.3,65.4l-38.2,107.6
			h75.3L983.3,65.4z"/>
		<path class="st1" d="M1137.4,275.6V9.9h51.7v265.7H1137.4z"/>
		<path class="st1" d="M1232.5,221.3c3.5,2.5,9.4,5.2,17.6,8.2c8.2,3,17.7,4.5,28.5,4.5c10.5,0,18.9-1.8,25.1-5.4
			c6.2-3.6,11-9.2,14.2-16.7c3.2-7.5,5.4-16.8,6.4-27.9c1-11.1,1.5-24.2,1.5-39.2V9.9h51.7v134.9c0,20.2-1.1,38.7-3.2,55.3
			c-2.1,16.6-6.6,30.8-13.5,42.5c-6.9,11.7-16.8,20.9-29.8,27.4c-13,6.5-30.5,9.7-52.5,9.7c-22.5,0-41.7-5.5-57.7-16.5L1232.5,221.3
			z"/>
		<path class="st1" d="M1481.8,105.1v170.5h-51.7V9.5h40.1l138.7,174.7V9.9h51.7v265.7h-42L1481.8,105.1z"/>
	</g>
	<path class="st3" d="M1481.9,825.4V996h-51.7V729.9h40.1l138.7,174.7V730.3h51.7V996h-42L1481.9,825.4z"/>
	<path class="st3" d="M-160.4,431.4H10.1v51.7H-256V443l174.7-138.7h-174.3v-51.7H10.1v42L-160.4,431.4z"/>
	<path class="st3" d="M1831.2,76.4h-170.5V24.7h266.1v40.1l-174.7,138.7h174.3v51.7h-265.7v-42L1831.2,76.4z"/>
	<path class="st3" d="M1481.8-160.4V10.1h-51.7V-256h40.1l138.7,174.7v-174.3h51.7V10.1h-42L1481.8-160.4z"/>
</g>
<g id="Calque_2">
	<g>
		<g>
			<path class="st3" d="M847.8,325.5h9.6v74.1H747.2v-72.7h9.6v61.9h39.7v-54h9.2v54h42.1V325.5z"/>
		</g>
		<g>
			<path class="st3" d="M958,274.2h9.6v74.1H857.4v-72.7h9.6v61.9h39.7v-54h9.2v54H958V274.2z"/>
		</g>
	</g>
</g>
</svg>
